<?xml version="1.0" standalone="no"?>
<!DOCTYPE svg PUBLIC "-//W3C//DTD SVG 20010904//EN"
 "http://www.w3.org/TR/2001/REC-SVG-20010904/DTD/svg10.dtd">
<svg version="1.0" xmlns="http://www.w3.org/2000/svg"
 width="700.000000pt" height="700.000000pt" viewBox="0 0 700.000000 700.000000"
 preserveAspectRatio="xMidYMid meet">
<metadata>
Created by potrace 1.14, written by Peter Selinger 2001-2017
</metadata>
<g transform="translate(0.000000,700.000000) scale(0.100000,-0.100000)"
fill="#000000" stroke="none">
<path d="M297 6053 c-3 -5 11 -62 30 -128 168 -588 1088 -3749 1266 -4350 l74
-250 392 -3 c216 -1 407 1 424 6 l32 8 102 315 c56 173 239 746 408 1274 393
1233 524 1635 534 1635 4 0 16 -30 28 -67 11 -38 142 -448 291 -913 149 -465
372 -1162 496 -1550 l224 -705 400 -3 c220 -1 411 2 424 7 26 10 10 -42 380
1221 580 1983 1008 3464 1008 3492 0 17 -20 18 -413 18 l-412 0 -23 -82 c-13
-46 -156 -576 -318 -1178 -525 -1950 -642 -2377 -654 -2399 -10 -19 14 -96
-773 2449 l-372 1205 -290 3 -290 2 -279 -907 c-655 -2129 -856 -2767 -867
-2756 -5 5 -67 229 -139 498 -149 558 -685 2545 -786 2918 l-68 247 -412 0
c-227 0 -415 -3 -417 -7z"/>
</g>
</svg>
