<?xml version="1.0" standalone="no"?>
<!DOCTYPE svg PUBLIC "-//W3C//DTD SVG 20010904//EN"
 "http://www.w3.org/TR/2001/REC-SVG-20010904/DTD/svg10.dtd">
<svg version="1.0" xmlns="http://www.w3.org/2000/svg"
 width="700.000000pt" height="700.000000pt" viewBox="0 0 700.000000 700.000000"
 preserveAspectRatio="xMidYMid meet">
<metadata>
Created by potrace 1.14, written by Peter Selinger 2001-2017
</metadata>
<g transform="translate(0.000000,700.000000) scale(0.100000,-0.100000)"
fill="#000000" stroke="none">
<path d="M1103 6461 c-133 -4 -244 -8 -246 -11 -9 -9 -124 -1128 -401 -3905
-181 -1804 -198 -1984 -192 -1994 13 -21 1102 -22 1136 -1 14 9 18 48 155
1465 165 1712 221 2277 231 2305 12 33 -32 149 795 -2105 297 -808 544 -1482
550 -1497 l11 -28 354 0 c333 0 354 1 363 18 15 29 160 417 583 1567 439 1194
734 1988 753 2025 l13 25 11 -25 c11 -25 29 -209 221 -2210 129 -1342 149
-1540 156 -1551 6 -11 334 -12 807 -2 l339 6 -6 56 c-4 31 -18 178 -31 326
-50 529 -248 2533 -391 3960 -80 798 -148 1476 -151 1507 -5 46 -9 57 -27 62
-11 3 -289 6 -618 6 l-596 0 -34 -87 c-19 -49 -335 -877 -703 -1840 -387
-1014 -674 -1753 -681 -1753 -17 0 -108 235 -922 2370 -536 1405 -490 1293
-532 1301 -51 10 -666 16 -947 10z"/>
</g>
</svg>
